<?xml version="1.0" encoding="iso-8859-1"?>
<!-- Generator: Adobe Illustrator 19.0.0, SVG Export Plug-In . SVG Version: 6.00 Build 0)  -->
<svg version="1.1" id="Layer_1" xmlns="http://www.w3.org/2000/svg" xmlns:xlink="http://www.w3.org/1999/xlink" x="0px" y="0px"
	 viewBox="0 0 512.003 512.003" style="enable-background:new 0 0 512.003 512.003;" xml:space="preserve">
<path style="fill:#FF883E;" d="M406.522,168.792c-3.099-0.271-6.241-0.408-9.339-0.408c-2.313,0-4.616,0.074-6.911,0.222
	c2.161-4.931,3.956-10.054,5.376-15.35c7.361-27.469,3.569-56.186-10.678-80.861c-14.245-24.676-37.22-42.318-64.691-49.678
	c-9.033-2.421-18.326-3.648-27.621-3.648c-12.538,0-24.961,2.227-36.657,6.516l-32.68,233.674l32.68,233.674
	c27.03,0,49.02-21.991,49.02-49.02V426.73c1.934,1.563,3.923,3.073,5.98,4.513c18.013,12.614,39.136,19.281,61.079,19.281
	c34.773,0,67.433-16.993,87.365-45.457c12.779-18.253,19.403-39.553,19.306-61.379c14.104-16.658,22.722-37.234,24.664-59.429
	C508.539,225.714,465.074,173.914,406.522,168.792z"/>
<path style="fill:#FFB88B;" d="M219.342,19.069c-9.295,0-18.589,1.228-27.622,3.648c-56.769,15.212-90.578,73.772-75.367,130.541
	c1.418,5.293,3.214,10.415,5.377,15.348c-2.294-0.148-4.599-0.222-6.912-0.222c-3.099,0-6.241,0.137-9.343,0.409
	C46.925,173.914,3.461,225.714,8.584,284.26c1.941,22.196,10.559,42.772,24.664,59.43c-0.097,21.826,6.526,43.127,19.308,61.381
	c19.93,28.459,52.587,45.452,87.37,45.455c21.942,0,43.06-6.667,61.072-19.28c2.059-1.441,4.048-2.952,5.983-4.515v17.183
	c0,27.03,21.991,49.02,49.02,49.02V25.586C244.303,21.295,231.881,19.069,219.342,19.069z"/>
<g>
	<path style="fill:#10744A;" d="M403.679,201.347c-2.156-0.188-4.341-0.284-6.496-0.284c-5.525,0-10.981,0.623-16.324,1.84
		l-25.131,213.109c5.325,1.209,10.801,1.832,16.353,1.832c24.122,0,46.774-11.783,60.595-31.521
		c11.279-16.109,15.608-35.771,12.294-54.93c14.854-12.548,24.176-30.391,25.89-49.982
		C474.412,240.816,444.273,204.9,403.679,201.347z"/>
	<path style="fill:#10744A;" d="M311.822,54.283c-6.274-1.681-12.722-2.534-19.165-2.534c-2.141,0-4.268,0.1-6.381,0.282
		l7.645,184.031l54.419-61.749c7.49-8.559,12.787-18.491,15.741-29.516C374.629,105.435,351.185,64.831,311.822,54.283z"/>
</g>
<path style="fill:#169B62;" d="M380.859,202.903c-3.498,0.796-6.949,1.842-10.336,3.155l-76.603,30.004
	c0,0,30.423-67.496,31.814-70.579c2.863-6.343,5.011-13.267,6.412-20.686c7.431-39.362-9.085-79.966-36.818-90.515
	c-2.974-1.131-6.006-1.878-9.052-2.252c-10.681,0.918-20.957,4.132-30.276,9.482c-11.164-6.409-23.697-9.764-36.658-9.764
	c-6.442,0-12.891,0.853-19.165,2.534c-39.363,10.548-62.806,51.152-52.259,90.516c2.954,11.024,8.251,20.955,15.767,29.542
	l54.395,61.722l-76.64-30.018c-8.524-3.306-17.482-4.982-26.624-4.982c-2.155,0-4.34,0.096-6.495,0.284
	c-40.597,3.552-70.735,39.468-67.183,80.065c1.714,19.591,11.036,37.434,25.89,49.982c-3.314,19.159,1.015,38.821,12.294,54.931
	c13.819,19.733,36.471,31.518,60.594,31.52c15.206,0,29.844-4.624,42.335-13.371c9.351-6.547,16.871-14.921,22.37-24.92
	l35.037-64.233v128.592c0,9.024,7.316,16.34,16.34,16.34c9.024,0,16.34-7.316,16.34-16.34V315.321l35.055,64.266
	c5.48,9.966,13.001,18.341,22.352,24.888c7.929,5.552,16.726,9.437,25.981,11.538c17.75-4.02,33.627-14.493,44.268-29.688
	c11.279-16.109,15.608-35.771,12.294-54.93c14.854-12.548,24.176-30.391,25.89-49.982
	C441.438,244.182,416.351,210.908,380.859,202.903z"/>
<circle cx="272.336" cy="102.366" r="8.17"/>
<circle cx="239.655" cy="135.047" r="8.17"/>
<path d="M485.106,201.241c-19.724-23.506-47.38-37.92-77.871-40.588c-1.704-0.149-3.422-0.26-5.139-0.334
	c0.517-1.637,0.999-3.289,1.443-4.948c7.926-29.578,3.844-60.497-11.494-87.061c-15.336-26.565-40.073-45.559-69.65-53.485
	c-9.723-2.606-19.728-3.926-29.737-3.926c-12.505,0-24.821,2.025-36.658,6.025c-11.837-4-24.154-6.025-36.657-6.025
	c-10.009,0-20.012,1.321-29.738,3.926c-61.12,16.377-97.52,79.426-81.143,140.547c0.443,1.659,0.926,3.309,1.442,4.947
	c-1.718,0.073-3.436,0.185-5.142,0.334c-30.491,2.668-58.145,17.082-77.868,40.588C7.17,224.746-2.224,254.483,0.445,284.972
	c1.993,22.792,10.505,44.052,24.658,61.682c0.489,22.603,7.636,44.361,20.76,63.103c21.457,30.641,56.621,48.935,94.063,48.939
	c20.889,0,41.083-5.61,58.886-16.296v1.513c0,31.534,25.656,57.191,57.191,57.191s57.191-25.656,57.191-57.191V442.4
	c17.804,10.685,38,16.295,58.891,16.295c37.436,0,72.599-18.296,94.058-48.941c13.122-18.742,20.268-40.499,20.759-63.101
	c14.154-17.63,22.665-38.89,24.658-61.68C514.223,254.483,504.83,224.746,485.106,201.241z M495.277,283.549
	c-1.785,20.413-9.655,39.384-22.76,54.86c-1.257,1.485-1.943,3.37-1.935,5.316c0.09,20.277-6.075,39.87-17.828,56.657
	c-18.404,26.282-48.563,41.972-80.673,41.972c-20.26,0-39.76-6.156-56.394-17.804c-1.808-1.266-3.669-2.671-5.532-4.177
	c-2.448-1.977-5.815-2.374-8.656-1.017c-2.84,1.356-4.649,4.224-4.649,7.373v17.182c0,22.525-18.325,40.85-40.85,40.85
	s-40.85-18.325-40.85-40.85v-17.182c0-3.148-1.808-6.014-4.648-7.373c-1.121-0.535-2.325-0.797-3.521-0.797
	c-1.834,0-3.653,0.617-5.134,1.814c-1.892,1.528-3.704,2.895-5.536,4.179c-16.632,11.646-36.13,17.803-56.385,17.803
	c-32.116-0.003-62.277-15.693-80.679-41.97c-11.754-16.788-17.92-36.38-17.829-56.659c0.009-1.946-0.678-3.831-1.935-5.316
	c-13.104-15.476-20.974-34.447-22.76-54.863c-2.289-26.141,5.769-51.641,22.688-71.804c16.917-20.162,40.633-32.525,66.775-34.812
	c4.986-0.437,10.051-0.492,15.018-0.172c2.858,0.181,5.582-1.131,7.218-3.466c1.635-2.337,1.935-5.356,0.791-7.967
	c-1.994-4.546-3.665-9.317-4.968-14.182c-6.791-25.349-3.285-51.86,9.874-74.655c13.16-22.795,34.368-39.088,59.715-45.88
	c8.347-2.235,16.928-3.369,25.509-3.369c11.572,0,22.959,2.024,33.844,6.016c1.817,0.666,3.811,0.666,5.628,0
	c10.885-3.992,22.272-6.016,33.844-6.016c8.581,0,17.163,1.134,25.507,3.369c25.363,6.795,46.576,23.086,59.73,45.871
	c13.155,22.785,16.657,49.3,9.862,74.661c-1.306,4.873-2.976,9.645-4.967,14.184c-1.145,2.611-0.844,5.632,0.792,7.966
	c1.635,2.336,4.372,3.647,7.217,3.466c4.97-0.32,10.033-0.265,15.012,0.172c26.144,2.288,49.86,14.651,66.779,34.813
	C489.507,231.906,497.565,257.407,495.277,283.549z"/>
<path d="M404.389,193.209c-2.392-0.208-4.817-0.315-7.206-0.315c-10.157,0-20.121,1.866-29.639,5.558l-45.184,17.697l32.128-36.455
	c8.322-9.509,14.204-20.538,17.484-32.782c5.667-21.145,2.744-43.258-8.229-62.262s-28.662-32.592-49.807-38.258
	c-6.966-1.867-14.124-2.813-21.279-2.813c-12.736,0-25.315,2.984-36.658,8.665c-11.342-5.681-23.922-8.665-36.657-8.665
	c-7.155,0-14.314,0.946-21.279,2.813c-43.714,11.714-69.748,56.807-58.035,100.521c3.281,12.243,9.172,23.281,17.529,32.83
	l32.086,36.407l-45.246-17.721c-9.467-3.673-19.42-5.535-29.578-5.535c-2.389,0-4.814,0.107-7.207,0.315
	c-15.525,1.359-30.276,7.094-42.658,16.584c-3.581,2.745-4.259,7.874-1.514,11.454s7.871,4.262,11.454,1.514
	c9.911-7.596,21.718-12.186,34.142-13.274c10.064-0.878,20.094,0.547,29.428,4.166l76.64,30.018c3.51,1.376,7.509,0.168,9.672-2.922
	c2.163-3.089,1.93-7.258-0.563-10.088l-54.377-61.701c-6.677-7.629-11.395-16.469-14.023-26.276
	c-9.381-35.011,11.47-71.128,46.482-80.509c5.586-1.497,11.323-2.255,17.049-2.255c11.429,0,22.7,3.001,32.591,8.68
	c2.517,1.444,5.617,1.444,8.134,0c9.891-5.679,21.162-8.68,32.591-8.68c5.728,0,11.463,0.758,17.049,2.255
	c16.931,4.537,31.095,15.42,39.885,30.645s11.133,32.933,6.597,49.862c-2.628,9.807-7.337,18.639-13.98,26.228l-54.419,61.749
	c-2.493,2.83-2.727,6.999-0.563,10.088c2.163,3.089,6.161,4.297,9.672,2.922l76.578-29.993c9.393-3.644,19.42-5.071,29.489-4.19
	c36.107,3.159,62.914,35.106,59.755,71.214c-1.522,17.41-9.699,33.198-23.023,44.453c-2.215,1.871-3.272,4.777-2.779,7.634
	c2.973,17.184-0.912,34.534-10.936,48.852c-12.293,17.556-32.444,28.036-53.902,28.036c-13.518,0-26.536-4.112-37.649-11.893
	c-8.317-5.824-15.005-13.269-19.865-22.108l-35.055-64.266c-1.789-3.278-5.571-4.927-9.192-4.004
	c-3.618,0.924-6.15,4.182-6.15,7.917v128.593c0,4.505-3.665,8.17-8.17,8.17c-4.506,0-8.17-3.665-8.17-8.17V315.321
	c0-3.735-2.533-6.994-6.15-7.917c-3.618-0.924-7.403,0.727-9.192,4.004l-35.022,64.208c-4.886,8.885-11.581,16.341-19.898,22.165
	c-11.111,7.781-24.13,11.893-37.649,11.893c-21.46-0.002-41.61-10.483-53.902-28.035c-10.024-14.318-13.909-31.667-10.936-48.853
	c0.493-2.857-0.564-5.763-2.779-7.634c-13.323-11.255-21.499-27.042-23.023-44.454c-1.076-12.3,1.336-24.613,6.973-35.606
	c2.06-4.015,0.475-8.939-3.54-10.998c-4.015-2.063-8.939-0.476-10.998,3.54c-7.046,13.734-10.058,29.118-8.714,44.488
	c1.767,20.2,10.709,38.65,25.319,52.441c-2.328,19.953,2.682,39.835,14.313,56.447c15.347,21.915,40.501,35.002,67.287,35.004
	c16.889,0,33.149-5.135,47.021-14.849c10.383-7.269,18.741-16.581,24.856-27.7l19.694-36.106v96.552
	c0,13.514,10.996,24.51,24.51,24.51s24.51-10.996,24.51-24.51V347.36l19.725,36.163c6.091,11.073,14.443,20.374,24.825,27.643
	c13.872,9.714,30.131,14.849,47.02,14.849c26.785,0,51.939-13.086,67.288-35.005c11.631-16.61,16.64-36.492,14.313-56.445
	c14.609-13.79,23.552-32.241,25.319-52.441C482.944,237.041,449.475,197.153,404.389,193.209z"/>
<circle cx="383.732" cy="294.123" r="8.17"/>
<g>
</g>
<g>
</g>
<g>
</g>
<g>
</g>
<g>
</g>
<g>
</g>
<g>
</g>
<g>
</g>
<g>
</g>
<g>
</g>
<g>
</g>
<g>
</g>
<g>
</g>
<g>
</g>
<g>
</g>
</svg>
